<svg width="190" height="190" viewBox="0 0 190 190" fill="none" xmlns="http://www.w3.org/2000/svg">
<g filter="url(#filter0_bdi_1_2122)">
<rect x="28" y="15.3059" width="133.255" height="133.255" rx="66.6274" transform="rotate(-0.561514 28 15.3059)" fill="url(#paint0_linear_1_2122)" fill-opacity="0.93" shape-rendering="crispEdges"/>
</g>
<circle cx="79.5" cy="64.5" r="16.5" fill="#FFDEDE"/>
<path d="M78 103C77.9972 102.348 78.1272 101.703 78.3825 101.1C78.6378 100.497 79.0134 99.9499 79.4875 99.4891C79.9617 99.0283 80.525 98.6633 81.145 98.4152C81.7651 98.1671 82.4295 98.0408 83.1 98.0435H112V65H83.1C82.4295 64.9973 81.7651 65.1236 81.145 65.3718C80.525 65.6199 79.9617 65.9849 79.4875 66.4457C79.0134 66.9065 78.6378 67.454 78.3825 68.0566C78.1272 68.6591 77.9972 69.3049 78 69.9566V103Z" stroke="#FF5F5F" stroke-width="3" stroke-linecap="round" stroke-linejoin="round"/>
<path d="M78 103V105H108" stroke="#FF5F5F" stroke-width="3" stroke-linecap="round" stroke-linejoin="round"/>
<defs>
<filter id="filter0_bdi_1_2122" x="0.649902" y="-6.78882" width="189.255" height="196.693" filterUnits="userSpaceOnUse" color-interpolation-filters="sRGB">
<feFlood flood-opacity="0" result="BackgroundImageFix"/>
<feGaussianBlur in="BackgroundImageFix" stdDeviation="10.7192"/>
<feComposite in2="SourceAlpha" operator="in" result="effect1_backgroundBlur_1_2122"/>
<feColorMatrix in="SourceAlpha" type="matrix" values="0 0 0 0 0 0 0 0 0 0 0 0 0 0 0 0 0 0 127 0" result="hardAlpha"/>
<feOffset dy="14"/>
<feGaussianBlur stdDeviation="14"/>
<feComposite in2="hardAlpha" operator="out"/>
<feColorMatrix type="matrix" values="0 0 0 0 0.804167 0 0 0 0 0.804167 0 0 0 0 0.804167 0 0 0 0.25 0"/>
<feBlend mode="normal" in2="effect1_backgroundBlur_1_2122" result="effect2_dropShadow_1_2122"/>
<feBlend mode="normal" in="SourceGraphic" in2="effect2_dropShadow_1_2122" result="shape"/>
<feColorMatrix in="SourceAlpha" type="matrix" values="0 0 0 0 0 0 0 0 0 0 0 0 0 0 0 0 0 0 127 0" result="hardAlpha"/>
<feOffset dx="-2.57262" dy="2.57262"/>
<feComposite in2="hardAlpha" operator="arithmetic" k2="-1" k3="1"/>
<feColorMatrix type="matrix" values="0 0 0 0 1 0 0 0 0 1 0 0 0 0 1 0 0 0 1 0"/>
<feBlend mode="normal" in2="shape" result="effect3_innerShadow_1_2122"/>
</filter>
<linearGradient id="paint0_linear_1_2122" x1="149.497" y1="63.8988" x2="33.9626" y2="50.7678" gradientUnits="userSpaceOnUse">
<stop stop-color="#F4F4F4"/>
<stop offset="0.421875" stop-color="#F4F4F4"/>
<stop offset="1" stop-color="white"/>
</linearGradient>
</defs>
</svg>
