<svg width="32" height="32" viewBox="0 0 32 32" fill="none" xmlns="http://www.w3.org/2000/svg">
<path d="M32 6.85633C32 5.64391 31.5184 4.48114 30.6611 3.62383C29.8038 2.76652 28.641 2.28488 27.4286 2.28488H26.2857V1.17417C26.2857 0.559165 25.8129 0.0313062 25.1979 0.000591853C25.0433 -0.00685332 24.8889 0.017152 24.7439 0.0711534C24.599 0.125155 24.4665 0.208028 24.3545 0.314751C24.2425 0.421474 24.1533 0.549825 24.0924 0.692026C24.0314 0.834228 24 0.987319 24 1.14202V2.28488H8V1.17417C8 0.559165 7.52714 0.0313062 6.91214 0.000591853C6.75762 -0.00685332 6.60319 0.017152 6.45822 0.0711534C6.31324 0.125155 6.18074 0.208028 6.06874 0.314751C5.95675 0.421474 5.86758 0.549825 5.80665 0.692026C5.74572 0.834228 5.7143 0.987319 5.71429 1.14202V2.28488H4.57143C3.35901 2.28488 2.19625 2.76652 1.33894 3.62383C0.481631 4.48114 0 5.64391 0 6.85633V7.71347C0 7.78925 0.030102 7.86192 0.0836838 7.91551C0.137266 7.96909 0.209938 7.99919 0.285714 7.99919H31.7143C31.7901 7.99919 31.8627 7.96909 31.9163 7.91551C31.9699 7.86192 32 7.78925 32 7.71347V6.85633ZM0 27.4278C0 28.6402 0.481631 29.803 1.33894 30.6603C2.19625 31.5176 3.35901 31.9993 4.57143 31.9993H27.4286C28.641 31.9993 29.8038 31.5176 30.6611 30.6603C31.5184 29.803 32 28.6402 32 27.4278V10.5706C32 10.4949 31.9699 10.4222 31.9163 10.3686C31.8627 10.315 31.7901 10.2849 31.7143 10.2849H0.285714C0.209938 10.2849 0.137266 10.315 0.0836838 10.3686C0.030102 10.4222 0 10.4949 0 10.5706V27.4278Z" fill="#CFCFCF"/>
</svg>
