<svg width="190" height="190" viewBox="0 0 190 190" fill="none" xmlns="http://www.w3.org/2000/svg">
<g filter="url(#filter0_bdi_1_2116)">
<rect x="28" y="15.3059" width="133.255" height="133.255" rx="66.6274" transform="rotate(-0.561514 28 15.3059)" fill="url(#paint0_linear_1_2116)" fill-opacity="0.93" shape-rendering="crispEdges"/>
</g>
<circle cx="77.5" cy="73.5" r="16.5" fill="#F0E4D1"/>
<path d="M73.2412 87.1666C71.2514 83.8143 70.554 79.8509 71.2799 76.0207C72.0058 72.1905 74.105 68.7571 77.1834 66.3654C80.2618 63.9736 84.1075 62.788 87.9983 63.0312C91.889 63.2744 95.5571 64.9298 98.3137 67.6863C101.07 70.4429 102.726 74.111 102.969 78.0017C103.212 81.8925 102.026 85.7382 99.6346 88.8166C97.2429 91.895 93.8095 93.9942 89.9793 94.7201C86.1491 95.446 82.1857 94.7486 78.8334 92.7588L73.3077 94.3344C73.0801 94.3984 72.8395 94.4006 72.6107 94.3408C72.3819 94.281 72.1731 94.1614 72.0059 93.9941C71.8386 93.8269 71.719 93.6181 71.6592 93.3893C71.5994 93.1605 71.6016 92.9199 71.6656 92.6923L73.2412 87.1666Z" stroke="#FFB545" stroke-width="3" stroke-linecap="round" stroke-linejoin="round"/>
<path d="M86 95.3032C86.7808 97.5378 88.0463 99.5703 89.7051 101.254C91.364 102.938 93.3747 104.231 95.592 105.039C97.8093 105.848 100.178 106.152 102.526 105.929C104.875 105.707 107.145 104.964 109.173 103.753V103.753L114.689 105.332C114.916 105.396 115.157 105.399 115.385 105.339C115.614 105.279 115.822 105.159 115.989 104.991C116.156 104.824 116.275 104.614 116.335 104.385C116.395 104.156 116.392 103.915 116.329 103.687L114.756 98.1496C116.16 95.7836 116.932 93.0936 116.996 90.3403C117.06 87.587 116.414 84.8638 115.122 82.4345C113.829 80.0052 111.933 77.9522 109.618 76.4744C107.303 74.9967 104.646 74.1444 101.906 74" stroke="#FFB545" stroke-width="3" stroke-linecap="round" stroke-linejoin="round"/>
<defs>
<filter id="filter0_bdi_1_2116" x="0.649902" y="-6.78882" width="189.255" height="196.693" filterUnits="userSpaceOnUse" color-interpolation-filters="sRGB">
<feFlood flood-opacity="0" result="BackgroundImageFix"/>
<feGaussianBlur in="BackgroundImageFix" stdDeviation="10.7192"/>
<feComposite in2="SourceAlpha" operator="in" result="effect1_backgroundBlur_1_2116"/>
<feColorMatrix in="SourceAlpha" type="matrix" values="0 0 0 0 0 0 0 0 0 0 0 0 0 0 0 0 0 0 127 0" result="hardAlpha"/>
<feOffset dy="14"/>
<feGaussianBlur stdDeviation="14"/>
<feComposite in2="hardAlpha" operator="out"/>
<feColorMatrix type="matrix" values="0 0 0 0 0.804167 0 0 0 0 0.804167 0 0 0 0 0.804167 0 0 0 0.25 0"/>
<feBlend mode="normal" in2="effect1_backgroundBlur_1_2116" result="effect2_dropShadow_1_2116"/>
<feBlend mode="normal" in="SourceGraphic" in2="effect2_dropShadow_1_2116" result="shape"/>
<feColorMatrix in="SourceAlpha" type="matrix" values="0 0 0 0 0 0 0 0 0 0 0 0 0 0 0 0 0 0 127 0" result="hardAlpha"/>
<feOffset dx="-2.57262" dy="2.57262"/>
<feComposite in2="hardAlpha" operator="arithmetic" k2="-1" k3="1"/>
<feColorMatrix type="matrix" values="0 0 0 0 1 0 0 0 0 1 0 0 0 0 1 0 0 0 1 0"/>
<feBlend mode="normal" in2="shape" result="effect3_innerShadow_1_2116"/>
</filter>
<linearGradient id="paint0_linear_1_2116" x1="149.497" y1="63.8988" x2="33.9626" y2="50.7678" gradientUnits="userSpaceOnUse">
<stop stop-color="#F4F4F4"/>
<stop offset="0.421875" stop-color="#F4F4F4"/>
<stop offset="1" stop-color="white"/>
</linearGradient>
</defs>
</svg>
