<svg width="34" height="34" viewBox="0 0 34 34" fill="none" xmlns="http://www.w3.org/2000/svg">
<path d="M17 -0.000732422C7.6263 -0.000732422 0 7.62557 0 16.9993C0 26.373 7.6263 33.9993 17 33.9993C26.3737 33.9993 34 26.373 34 16.9993C34 7.62557 26.3737 -0.000732422 17 -0.000732422ZM25.8474 11.3018L14.8627 24.3787C14.7422 24.5223 14.5923 24.6382 14.4231 24.7187C14.2539 24.7992 14.0693 24.8424 13.882 24.8454H13.8599C13.6766 24.8454 13.4954 24.8068 13.328 24.7321C13.1606 24.6575 13.0107 24.5485 12.8881 24.4122L8.18043 19.1815C8.06087 19.0547 7.96787 18.9052 7.90689 18.742C7.8459 18.5787 7.81817 18.4049 7.82532 18.2308C7.83246 18.0566 7.87435 17.8857 7.94851 17.728C8.02267 17.5702 8.12761 17.4289 8.25715 17.3124C8.3867 17.1958 8.53825 17.1063 8.70289 17.0491C8.86752 16.9919 9.04193 16.9682 9.21585 16.9794C9.38977 16.9906 9.55971 17.0364 9.71566 17.1142C9.87162 17.192 10.0104 17.3002 10.124 17.4324L13.8256 21.5451L23.845 9.6198C24.0697 9.35996 24.3877 9.199 24.7301 9.17171C25.0726 9.14442 25.412 9.25299 25.6751 9.47396C25.9382 9.69493 26.1037 10.0105 26.1359 10.3526C26.1682 10.6946 26.0645 11.0356 25.8474 11.3018Z" fill="#2FCF3F"/>
</svg>
