<svg width="35" height="29" viewBox="0 0 35 29" fill="none" xmlns="http://www.w3.org/2000/svg">
<path d="M33.9638 4.41669L28.3104 10.0522L24.9235 6.67745L30.5769 1.04401C27.4243 -0.489658 23.0021 -0.495932 20.3841 2.11409C17.9217 4.56796 17.6143 8.43072 18.8127 11.4695L6.24607 23.9354C6.16807 24.0131 6.10619 24.1055 6.06396 24.2072C6.02174 24.3088 6 24.4179 6 24.528C6 24.6381 6.02174 24.7471 6.06396 24.8488C6.10619 24.9505 6.16807 25.0428 6.24607 25.1205L9.89022 28.7532C9.96794 28.8312 10.0603 28.8931 10.162 28.9353C10.2637 28.9775 10.3727 28.9993 10.4828 28.9993C10.5929 28.9993 10.702 28.9775 10.8036 28.9353C10.9053 28.8931 10.9977 28.8312 11.0754 28.7532L23.6246 16.1702C26.6337 17.3002 30.457 16.9816 32.879 14.5668C35.4934 11.9561 35.4878 7.57186 33.9638 4.41669Z" fill="#CFCFCF"/>
<path d="M25.2893 18.1687L20.3185 23.1884L25.5454 28.7603C25.6146 28.8345 25.698 28.8939 25.7905 28.9349C25.883 28.976 25.9827 28.9978 26.0838 28.9992C26.1849 29.0006 26.2852 28.9814 26.3787 28.9429C26.4723 28.9044 26.5572 28.8473 26.6284 28.775L30.7806 24.5598C30.8516 24.4873 30.9075 24.4013 30.9452 24.3068C30.9829 24.2123 31.0015 24.1112 30.9999 24.0093C30.9984 23.9075 30.9767 23.807 30.9362 23.7137C30.8957 23.6204 30.8371 23.5362 30.7639 23.4659L25.2893 18.1687ZM8.23427 11.4324C8.23427 11.0929 7.95746 10.782 7.71871 10.5414L7.70141 10.5247L7.59484 10.4222C7.58822 10.4147 7.58321 10.4058 7.58011 10.3962C7.57702 10.3866 7.57591 10.3765 7.57684 10.3664C7.77702 10.2529 8.00705 10.2042 8.23565 10.227C8.32354 10.2361 8.64464 10.2898 9.09377 10.5693C9.32768 10.715 11.3519 12.6769 12.1339 13.4069C11.9967 13.5513 11.921 13.7441 11.9228 13.944C11.9246 14.1439 12.0038 14.3351 12.1435 14.4771L12.6577 15.0251L17.2016 10.4815L16.6307 9.93489C16.4903 9.79353 16.3002 9.71378 16.1018 9.713C15.9033 9.71221 15.7126 9.79046 15.5712 9.9307C13.9795 8.21005 13.5643 7.45918 13.4259 6.97114C13.12 5.8926 13.7124 5.01902 14.3947 4.46127C14.7989 4.13917 15.6321 3.89794 16.4016 3.8338C16.6701 3.81786 16.9396 3.83189 17.205 3.87563C17.4452 3.91049 17.641 3.95511 17.7164 3.97324C17.9776 4.04415 18.2323 4.13745 18.4777 4.25211L19.3081 2.92746C19.0517 2.47849 18.7402 2.06388 18.3808 1.69344C18.2648 1.57113 18.145 1.45255 18.0216 1.33787C17.4832 0.839383 16.0839 -0.000727469 14.2438 -0.000727469C13.1811 -0.00190539 12.1285 0.207015 11.1456 0.614192C8.55468 1.68368 6.86336 3.1415 6.08622 3.91537L6.08137 3.92025C5.55914 4.44897 5.07597 5.01543 4.63572 5.61512C4.26549 6.1401 4.30563 6.71946 4.33262 7.10291C4.33262 7.12522 4.33262 7.14962 4.33746 7.17263C4.12045 7.01428 3.85941 6.9289 3.59145 6.92862C3.42547 6.92746 3.26094 6.95974 3.10751 7.02356C2.95409 7.08737 2.81488 7.18143 2.69804 7.30022L0.13754 9.87214C0.0494721 9.96091 0 10.0813 0 10.2068C0 10.3323 0.0494721 10.4527 0.13754 10.5414L4.49732 14.9184C4.58452 15.0062 4.70275 15.0555 4.82603 15.0555C4.94931 15.0555 5.06754 15.0062 5.15475 14.9184L7.7194 12.3388C7.95746 12.099 8.23427 11.7713 8.23427 11.4324Z" fill="#CFCFCF"/>
</svg>
