<svg width="320" height="162" viewBox="0 0 320 162" fill="none" xmlns="http://www.w3.org/2000/svg">
<path d="M2.808 17.8833C2.808 18.9873 3.024 19.9593 3.456 20.7993C3.912 21.6153 4.512 22.2993 5.256 22.8513C6.024 23.4033 6.888 23.8233 7.848 24.1113C8.808 24.3993 9.804 24.5433 10.836 24.5433C11.868 24.5433 12.864 24.3993 13.824 24.1113C14.784 23.8233 15.636 23.4033 16.38 22.8513C17.148 22.2993 17.748 21.6153 18.18 20.7993C18.636 19.9593 18.864 18.9873 18.864 17.8833C18.864 16.5393 18.492 15.3753 17.748 14.3913C17.028 13.4073 16.056 12.6513 14.832 12.1233C13.632 11.5713 12.3 11.2953 10.836 11.2953C9.348 11.2953 7.992 11.5713 6.768 12.1233C5.568 12.6513 4.608 13.4073 3.888 14.3913C3.168 15.3753 2.808 16.5393 2.808 17.8833ZM7.632 18.3873C7.632 17.7633 7.764 17.1993 8.028 16.6953C8.316 16.1913 8.7 15.8073 9.18 15.5433C9.66 15.2793 10.212 15.1473 10.836 15.1473C11.46 15.1473 12.012 15.2793 12.492 15.5433C12.972 15.8073 13.344 16.1913 13.608 16.6953C13.872 17.1993 14.004 17.7633 14.004 18.3873C14.004 19.0353 13.86 19.5993 13.572 20.0793C13.308 20.5593 12.936 20.9433 12.456 21.2313C11.976 21.4953 11.436 21.6273 10.836 21.6273C10.236 21.6273 9.696 21.4953 9.216 21.2313C8.736 20.9433 8.352 20.5593 8.064 20.0793C7.776 19.5993 7.632 19.0353 7.632 18.3873ZM1.908 30.1593C1.908 31.2633 2.136 32.2713 2.592 33.1833C3.072 34.0713 3.732 34.8393 4.572 35.4873C5.412 36.1353 6.36 36.6393 7.416 36.9993C8.496 37.3353 9.636 37.5033 10.836 37.5033C12.036 37.5033 13.164 37.3353 14.22 36.9993C15.3 36.6393 16.248 36.1353 17.064 35.4873C17.904 34.8393 18.564 34.0713 19.044 33.1833C19.524 32.2713 19.764 31.2633 19.764 30.1593C19.764 28.8873 19.5 27.7953 18.972 26.8833C18.444 25.9473 17.736 25.1793 16.848 24.5793C15.984 23.9793 15.024 23.5353 13.968 23.2473C12.912 22.9593 11.868 22.8153 10.836 22.8153C9.804 22.8153 8.76 22.9593 7.704 23.2473C6.648 23.5353 5.676 23.9793 4.788 24.5793C3.924 25.1793 3.228 25.9473 2.7 26.8833C2.172 27.7953 1.908 28.8873 1.908 30.1593ZM6.984 29.4033C6.984 28.7073 7.152 28.0713 7.488 27.4953C7.848 26.9193 8.316 26.4633 8.892 26.1273C9.492 25.7913 10.14 25.6233 10.836 25.6233C11.508 25.6233 12.132 25.7913 12.708 26.1273C13.308 26.4633 13.788 26.9193 14.148 27.4953C14.508 28.0713 14.688 28.7073 14.688 29.4033C14.688 30.2433 14.508 30.9513 14.148 31.5273C13.788 32.0793 13.308 32.5113 12.708 32.8233C12.132 33.1113 11.508 33.2553 10.836 33.2553C10.14 33.2553 9.492 33.1113 8.892 32.8233C8.316 32.5113 7.848 32.0793 7.488 31.5273C7.152 30.9513 6.984 30.2433 6.984 29.4033ZM42.5363 28.8633C42.5363 27.1353 42.1763 25.6593 41.4563 24.4353C40.7603 23.1873 39.8363 22.2273 38.6843 21.5553C37.5323 20.8833 36.2723 20.5473 34.9043 20.5473C34.1603 20.5473 33.4283 20.6193 32.7083 20.7633C32.0123 20.8833 31.3523 21.1113 30.7283 21.4473L32.2402 16.2633H42.1403V11.7993H28.4243L24.9683 25.9833C25.8323 25.5033 26.6483 25.1433 27.4163 24.9033C28.2083 24.6393 28.9763 24.4593 29.7203 24.3633C30.4643 24.2433 31.1723 24.1833 31.8443 24.1833C32.7563 24.1833 33.5963 24.3513 34.3643 24.6873C35.1563 24.9993 35.7803 25.4673 36.2363 26.0913C36.7163 26.7153 36.9563 27.4833 36.9563 28.3953C36.9563 29.3313 36.7523 30.1233 36.3443 30.7713C35.9363 31.3953 35.3483 31.8753 34.5803 32.2113C33.8363 32.5473 32.9243 32.7153 31.8443 32.7153C31.1483 32.7153 30.4163 32.5833 29.6483 32.3193C28.8803 32.0313 28.1363 31.6473 27.4163 31.1673C26.7203 30.6873 26.0723 30.1473 25.4723 29.5473L23.0603 33.5433C23.7563 34.2393 24.5603 34.8873 25.4723 35.4873C26.3843 36.0633 27.4403 36.5313 28.6403 36.8913C29.8643 37.2513 31.2443 37.4313 32.7803 37.4313C34.0043 37.4313 35.1923 37.2633 36.3443 36.9273C37.4963 36.5913 38.5403 36.0753 39.4763 35.3793C40.4123 34.6833 41.1563 33.7953 41.7083 32.7153C42.2603 31.6353 42.5363 30.3513 42.5363 28.8633Z" fill="#303030"/>
<path d="M48.06 28.4793V29.3793H50.82V28.4793H48.06ZM48.96 26.5593V33.9993H49.92V26.5593H48.96ZM52.7428 24.6393H51.7828V33.9993H52.7428V24.6393ZM55.3228 30.6393V33.9993H56.2828V30.5193C56.2828 30.0393 56.2028 29.6393 56.0428 29.3193C55.8908 28.9993 55.6708 28.7593 55.3828 28.5993C55.1028 28.4393 54.7708 28.3593 54.3868 28.3593C54.0028 28.3593 53.6628 28.4593 53.3668 28.6593C53.0788 28.8593 52.8508 29.1313 52.6828 29.4753C52.5148 29.8113 52.4308 30.1993 52.4308 30.6393H52.7428C52.7428 30.3753 52.7988 30.1393 52.9108 29.9313C53.0308 29.7233 53.1948 29.5593 53.4028 29.4393C53.6188 29.3193 53.8668 29.2593 54.1468 29.2593C54.5388 29.2593 54.8308 29.3753 55.0228 29.6073C55.2228 29.8393 55.3228 30.1833 55.3228 30.6393ZM58.0875 26.1993C58.0875 26.3753 58.1515 26.5313 58.2795 26.6673C58.4155 26.7953 58.5715 26.8593 58.7475 26.8593C58.9315 26.8593 59.0875 26.7953 59.2155 26.6673C59.3435 26.5313 59.4075 26.3753 59.4075 26.1993C59.4075 26.0153 59.3435 25.8593 59.2155 25.7313C59.0875 25.6033 58.9315 25.5393 58.7475 25.5393C58.5715 25.5393 58.4155 25.6033 58.2795 25.7313C58.1515 25.8593 58.0875 26.0153 58.0875 26.1993ZM58.2675 28.4793V33.9993H59.2275V28.4793H58.2675ZM61.4327 32.3073L60.6767 32.7753C60.7807 32.9913 60.9327 33.2033 61.1327 33.4113C61.3407 33.6193 61.5927 33.7913 61.8887 33.9273C62.1847 34.0553 62.5167 34.1193 62.8847 34.1193C63.4527 34.1193 63.9087 33.9593 64.2527 33.6393C64.6047 33.3193 64.7807 32.9193 64.7807 32.4393C64.7807 32.1113 64.7007 31.8433 64.5407 31.6353C64.3887 31.4273 64.1807 31.2513 63.9167 31.1073C63.6527 30.9553 63.3607 30.8153 63.0407 30.6873C62.8487 30.6073 62.6647 30.5233 62.4887 30.4353C62.3127 30.3473 62.1687 30.2473 62.0567 30.1353C61.9447 30.0233 61.8887 29.8953 61.8887 29.7513C61.8887 29.5673 61.9607 29.4313 62.1047 29.3433C62.2487 29.2553 62.4207 29.2113 62.6207 29.2113C62.9087 29.2113 63.1647 29.2793 63.3887 29.4153C63.6207 29.5513 63.8127 29.7233 63.9647 29.9313L64.7327 29.4393C64.6207 29.2313 64.4647 29.0473 64.2647 28.8873C64.0647 28.7273 63.8327 28.5993 63.5687 28.5033C63.3127 28.4073 63.0367 28.3593 62.7407 28.3593C62.4447 28.3593 62.1567 28.4113 61.8767 28.5153C61.6047 28.6193 61.3807 28.7793 61.2047 28.9953C61.0367 29.2113 60.9527 29.4833 60.9527 29.8113C60.9527 30.1313 61.0327 30.3993 61.1927 30.6153C61.3607 30.8233 61.5647 30.9953 61.8047 31.1313C62.0527 31.2593 62.2967 31.3713 62.5367 31.4673C62.7527 31.5473 62.9567 31.6353 63.1487 31.7313C63.3407 31.8193 63.4967 31.9313 63.6167 32.0673C63.7447 32.1953 63.8087 32.3553 63.8087 32.5473C63.8087 32.7633 63.7287 32.9353 63.5687 33.0633C63.4167 33.1833 63.2047 33.2433 62.9327 33.2433C62.7087 33.2433 62.5007 33.2033 62.3087 33.1233C62.1247 33.0353 61.9607 32.9193 61.8167 32.7753C61.6727 32.6313 61.5447 32.4753 61.4327 32.3073ZM68.8022 28.4793L71.2022 34.4193L72.7742 30.3993L74.4422 34.4193L76.8422 28.4793H75.7622L74.3702 32.0913L72.7622 28.0593L71.2622 32.0673L69.8822 28.4793H68.8022ZM79.7587 34.1193C80.3507 34.1193 80.8627 34.0033 81.2947 33.7713C81.7347 33.5313 82.0987 33.1793 82.3867 32.7153L81.6067 32.2233C81.4067 32.5593 81.1627 32.8113 80.8747 32.9793C80.5867 33.1393 80.2547 33.2193 79.8787 33.2193C79.5027 33.2193 79.1827 33.1393 78.9187 32.9793C78.6547 32.8193 78.4547 32.5873 78.3187 32.2833C78.1827 31.9793 78.1147 31.6113 78.1147 31.1793C78.1227 30.7553 78.1947 30.3993 78.3307 30.1113C78.4747 29.8153 78.6747 29.5913 78.9307 29.4393C79.1947 29.2793 79.5107 29.1993 79.8787 29.1993C80.1907 29.1993 80.4627 29.2673 80.6947 29.4033C80.9267 29.5393 81.1067 29.7273 81.2347 29.9673C81.3707 30.2073 81.4387 30.4913 81.4387 30.8193C81.4387 30.8753 81.4267 30.9473 81.4027 31.0353C81.3787 31.1153 81.3547 31.1753 81.3307 31.2153L81.7147 30.6633H77.7547V31.4793H82.4707C82.4707 31.4633 82.4707 31.4273 82.4707 31.3713C82.4787 31.3073 82.4827 31.2473 82.4827 31.1913C82.4827 30.6073 82.3787 30.1033 82.1707 29.6793C81.9627 29.2553 81.6627 28.9313 81.2707 28.7073C80.8867 28.4753 80.4227 28.3593 79.8787 28.3593C79.3347 28.3593 78.8547 28.4793 78.4387 28.7193C78.0307 28.9593 77.7107 29.2953 77.4787 29.7273C77.2547 30.1593 77.1427 30.6633 77.1427 31.2393C77.1427 31.8073 77.2507 32.3073 77.4667 32.7393C77.6907 33.1713 77.9987 33.5113 78.3907 33.7593C78.7907 33.9993 79.2467 34.1193 79.7587 34.1193ZM85.9344 34.1193C86.5264 34.1193 87.0384 34.0033 87.4704 33.7713C87.9104 33.5313 88.2744 33.1793 88.5624 32.7153L87.7824 32.2233C87.5824 32.5593 87.3384 32.8113 87.0504 32.9793C86.7624 33.1393 86.4304 33.2193 86.0544 33.2193C85.6784 33.2193 85.3584 33.1393 85.0944 32.9793C84.8304 32.8193 84.6304 32.5873 84.4944 32.2833C84.3584 31.9793 84.2904 31.6113 84.2904 31.1793C84.2984 30.7553 84.3704 30.3993 84.5064 30.1113C84.6504 29.8153 84.8504 29.5913 85.1064 29.4393C85.3704 29.2793 85.6864 29.1993 86.0544 29.1993C86.3664 29.1993 86.6384 29.2673 86.8704 29.4033C87.1024 29.5393 87.2824 29.7273 87.4104 29.9673C87.5464 30.2073 87.6144 30.4913 87.6144 30.8193C87.6144 30.8753 87.6024 30.9473 87.5784 31.0353C87.5544 31.1153 87.5304 31.1753 87.5064 31.2153L87.8904 30.6633H83.9304V31.4793H88.6464C88.6464 31.4633 88.6464 31.4273 88.6464 31.3713C88.6544 31.3073 88.6584 31.2473 88.6584 31.1913C88.6584 30.6073 88.5544 30.1033 88.3464 29.6793C88.1384 29.2553 87.8384 28.9313 87.4464 28.7073C87.0624 28.4753 86.5984 28.3593 86.0544 28.3593C85.5104 28.3593 85.0304 28.4793 84.6144 28.7193C84.2064 28.9593 83.8864 29.2953 83.6544 29.7273C83.4304 30.1593 83.3184 30.6633 83.3184 31.2393C83.3184 31.8073 83.4264 32.3073 83.6424 32.7393C83.8664 33.1713 84.1744 33.5113 84.5664 33.7593C84.9664 33.9993 85.4224 34.1193 85.9344 34.1193ZM89.9142 24.6393V33.9993H90.8742V24.6393H89.9142ZM92.9142 28.4793L90.5142 30.7593L93.1542 33.9993H94.3542L91.7142 30.7593L94.1142 28.4793H92.9142Z" fill="#9A9A9A"/>
<path d="M298.86 36.5493C298.86 35.8493 298.725 35.2343 298.455 34.7043C298.185 34.1743 297.81 33.7593 297.33 33.4593C296.86 33.1593 296.325 33.0093 295.725 33.0093C295.465 33.0093 295.2 33.0443 294.93 33.1143C294.67 33.1743 294.415 33.2693 294.165 33.3993L294.87 30.6243H298.83V29.4993H293.88L292.5 35.0943C292.86 34.8443 293.175 34.6543 293.445 34.5243C293.725 34.3843 294 34.2893 294.27 34.2393C294.55 34.1793 294.855 34.1493 295.185 34.1493C295.635 34.1493 296.035 34.2493 296.385 34.4493C296.745 34.6493 297.025 34.9293 297.225 35.2893C297.435 35.6493 297.54 36.0693 297.54 36.5493C297.54 37.0293 297.445 37.4493 297.255 37.8093C297.075 38.1693 296.81 38.4493 296.46 38.6493C296.11 38.8493 295.685 38.9493 295.185 38.9493C294.805 38.9493 294.44 38.8693 294.09 38.7093C293.74 38.5393 293.43 38.3243 293.16 38.0643C292.9 37.7943 292.69 37.5093 292.53 37.2093L291.45 37.9443C291.68 38.3443 291.96 38.7143 292.29 39.0543C292.63 39.3843 293.035 39.6493 293.505 39.8493C293.985 40.0493 294.545 40.1493 295.185 40.1493C295.695 40.1493 296.17 40.0743 296.61 39.9243C297.05 39.7743 297.44 39.5493 297.78 39.2493C298.12 38.9493 298.385 38.5743 298.575 38.1243C298.765 37.6743 298.86 37.1493 298.86 36.5493ZM301.342 34.7493C301.342 34.1393 301.402 33.5793 301.522 33.0693C301.642 32.5493 301.817 32.1043 302.047 31.7343C302.277 31.3543 302.552 31.0643 302.872 30.8643C303.202 30.6543 303.567 30.5493 303.967 30.5493C304.377 30.5493 304.742 30.6543 305.062 30.8643C305.382 31.0643 305.657 31.3543 305.887 31.7343C306.117 32.1043 306.292 32.5493 306.412 33.0693C306.532 33.5793 306.592 34.1393 306.592 34.7493C306.592 35.3593 306.532 35.9243 306.412 36.4443C306.292 36.9543 306.117 37.3993 305.887 37.7793C305.657 38.1493 305.382 38.4393 305.062 38.6493C304.742 38.8493 304.377 38.9493 303.967 38.9493C303.567 38.9493 303.202 38.8493 302.872 38.6493C302.552 38.4393 302.277 38.1493 302.047 37.7793C301.817 37.3993 301.642 36.9543 301.522 36.4443C301.402 35.9243 301.342 35.3593 301.342 34.7493ZM300.067 34.7493C300.067 35.7993 300.232 36.7293 300.562 37.5393C300.892 38.3493 301.347 38.9893 301.927 39.4593C302.517 39.9193 303.197 40.1493 303.967 40.1493C304.737 40.1493 305.412 39.9193 305.992 39.4593C306.582 38.9893 307.042 38.3493 307.372 37.5393C307.702 36.7293 307.867 35.7993 307.867 34.7493C307.867 33.6993 307.702 32.7693 307.372 31.9593C307.042 31.1493 306.582 30.5143 305.992 30.0543C305.412 29.5843 304.737 29.3493 303.967 29.3493C303.197 29.3493 302.517 29.5843 301.927 30.0543C301.347 30.5143 300.892 31.1493 300.562 31.9593C300.232 32.7693 300.067 33.6993 300.067 34.7493ZM308.986 31.7493C308.986 32.1893 309.081 32.5943 309.271 32.9643C309.471 33.3243 309.751 33.6143 310.111 33.8343C310.471 34.0443 310.886 34.1493 311.356 34.1493C311.836 34.1493 312.251 34.0443 312.601 33.8343C312.961 33.6143 313.236 33.3243 313.426 32.9643C313.626 32.5943 313.726 32.1893 313.726 31.7493C313.726 31.2993 313.626 30.8943 313.426 30.5343C313.236 30.1743 312.961 29.8893 312.601 29.6793C312.251 29.4593 311.836 29.3493 311.356 29.3493C310.886 29.3493 310.471 29.4593 310.111 29.6793C309.751 29.8893 309.471 30.1743 309.271 30.5343C309.081 30.8943 308.986 31.2993 308.986 31.7493ZM310.051 31.7493C310.051 31.4893 310.101 31.2543 310.201 31.0443C310.311 30.8243 310.461 30.6493 310.651 30.5193C310.851 30.3893 311.086 30.3243 311.356 30.3243C311.636 30.3243 311.871 30.3893 312.061 30.5193C312.251 30.6493 312.396 30.8243 312.496 31.0443C312.606 31.2543 312.661 31.4893 312.661 31.7493C312.661 31.9993 312.606 32.2343 312.496 32.4543C312.396 32.6743 312.251 32.8493 312.061 32.9793C311.871 33.1093 311.636 33.1743 311.356 33.1743C311.086 33.1743 310.851 33.1093 310.651 32.9793C310.461 32.8493 310.311 32.6743 310.201 32.4543C310.101 32.2343 310.051 31.9993 310.051 31.7493ZM314.461 37.7493C314.461 38.1893 314.556 38.5943 314.746 38.9643C314.946 39.3243 315.226 39.6143 315.586 39.8343C315.946 40.0443 316.361 40.1493 316.831 40.1493C317.311 40.1493 317.726 40.0443 318.076 39.8343C318.436 39.6143 318.711 39.3243 318.901 38.9643C319.101 38.5943 319.201 38.1893 319.201 37.7493C319.201 37.2993 319.101 36.8943 318.901 36.5343C318.711 36.1743 318.436 35.8893 318.076 35.6793C317.726 35.4593 317.311 35.3493 316.831 35.3493C316.361 35.3493 315.946 35.4593 315.586 35.6793C315.226 35.8893 314.946 36.1743 314.746 36.5343C314.556 36.8943 314.461 37.2993 314.461 37.7493ZM315.526 37.7493C315.526 37.4893 315.576 37.2543 315.676 37.0443C315.786 36.8243 315.936 36.6493 316.126 36.5193C316.326 36.3893 316.561 36.3243 316.831 36.3243C317.111 36.3243 317.346 36.3893 317.536 36.5193C317.726 36.6493 317.871 36.8243 317.971 37.0443C318.081 37.2543 318.136 37.4893 318.136 37.7493C318.136 37.9993 318.081 38.2343 317.971 38.4543C317.871 38.6743 317.726 38.8493 317.536 38.9793C317.346 39.1093 317.111 39.1743 316.831 39.1743C316.561 39.1743 316.326 39.1093 316.126 38.9793C315.936 38.8493 315.786 38.6743 315.676 38.4543C315.576 38.2343 315.526 37.9993 315.526 37.7493ZM316.906 29.4993L310.156 39.9993H311.281L318.031 29.4993H316.906Z" fill="#303030"/>
<path d="M213.965 21.5493C213.965 21.0693 214.065 20.6443 214.265 20.2743C214.475 19.8943 214.755 19.5993 215.105 19.3893C215.465 19.1793 215.87 19.0743 216.32 19.0743C216.77 19.0743 217.17 19.1793 217.52 19.3893C217.88 19.5993 218.16 19.8943 218.36 20.2743C218.57 20.6443 218.675 21.0693 218.675 21.5493C218.675 22.0293 218.57 22.4543 218.36 22.8243C218.16 23.1843 217.88 23.4693 217.52 23.6793C217.17 23.8893 216.77 23.9943 216.32 23.9943C215.87 23.9943 215.465 23.8893 215.105 23.6793C214.755 23.4693 214.475 23.1843 214.265 22.8243C214.065 22.4543 213.965 22.0293 213.965 21.5493ZM216.95 14.4993L213.41 19.3743C213.21 19.6543 213.05 19.9793 212.93 20.3493C212.81 20.7193 212.75 21.1193 212.75 21.5493C212.75 22.2693 212.905 22.8993 213.215 23.4393C213.535 23.9793 213.965 24.3993 214.505 24.6993C215.045 24.9993 215.65 25.1493 216.32 25.1493C217 25.1493 217.605 24.9993 218.135 24.6993C218.675 24.3993 219.1 23.9793 219.41 23.4393C219.73 22.8993 219.89 22.2693 219.89 21.5493C219.89 21.0693 219.81 20.6243 219.65 20.2143C219.49 19.7943 219.265 19.4293 218.975 19.1193C218.695 18.8093 218.365 18.5693 217.985 18.3993C217.615 18.2293 217.215 18.1443 216.785 18.1443C216.445 18.1443 216.14 18.1843 215.87 18.2643C215.61 18.3443 215.38 18.5093 215.18 18.7593L215.27 18.8343L218.555 14.4993H216.95ZM222.518 19.7493C222.518 19.1393 222.578 18.5793 222.698 18.0693C222.818 17.5493 222.993 17.1043 223.223 16.7343C223.453 16.3543 223.728 16.0643 224.048 15.8643C224.378 15.6543 224.743 15.5493 225.143 15.5493C225.553 15.5493 225.918 15.6543 226.238 15.8643C226.558 16.0643 226.833 16.3543 227.063 16.7343C227.293 17.1043 227.468 17.5493 227.588 18.0693C227.708 18.5793 227.768 19.1393 227.768 19.7493C227.768 20.3593 227.708 20.9243 227.588 21.4443C227.468 21.9543 227.293 22.3993 227.063 22.7793C226.833 23.1493 226.558 23.4393 226.238 23.6493C225.918 23.8493 225.553 23.9493 225.143 23.9493C224.743 23.9493 224.378 23.8493 224.048 23.6493C223.728 23.4393 223.453 23.1493 223.223 22.7793C222.993 22.3993 222.818 21.9543 222.698 21.4443C222.578 20.9243 222.518 20.3593 222.518 19.7493ZM221.243 19.7493C221.243 20.7993 221.408 21.7293 221.738 22.5393C222.068 23.3493 222.523 23.9893 223.103 24.4593C223.693 24.9193 224.373 25.1493 225.143 25.1493C225.913 25.1493 226.588 24.9193 227.168 24.4593C227.758 23.9893 228.218 23.3493 228.548 22.5393C228.878 21.7293 229.043 20.7993 229.043 19.7493C229.043 18.6993 228.878 17.7693 228.548 16.9593C228.218 16.1493 227.758 15.5143 227.168 15.0543C226.588 14.5843 225.913 14.3493 225.143 14.3493C224.373 14.3493 223.693 14.5843 223.103 15.0543C222.523 15.5143 222.068 16.1493 221.738 16.9593C221.408 17.7693 221.243 18.6993 221.243 19.7493ZM230.162 16.7493C230.162 17.1893 230.257 17.5943 230.447 17.9643C230.647 18.3243 230.927 18.6143 231.287 18.8343C231.647 19.0443 232.062 19.1493 232.532 19.1493C233.012 19.1493 233.427 19.0443 233.777 18.8343C234.137 18.6143 234.412 18.3243 234.602 17.9643C234.802 17.5943 234.902 17.1893 234.902 16.7493C234.902 16.2993 234.802 15.8943 234.602 15.5343C234.412 15.1743 234.137 14.8893 233.777 14.6793C233.427 14.4593 233.012 14.3493 232.532 14.3493C232.062 14.3493 231.647 14.4593 231.287 14.6793C230.927 14.8893 230.647 15.1743 230.447 15.5343C230.257 15.8943 230.162 16.2993 230.162 16.7493ZM231.227 16.7493C231.227 16.4893 231.277 16.2543 231.377 16.0443C231.487 15.8243 231.637 15.6493 231.827 15.5193C232.027 15.3893 232.262 15.3243 232.532 15.3243C232.812 15.3243 233.047 15.3893 233.237 15.5193C233.427 15.6493 233.572 15.8243 233.672 16.0443C233.782 16.2543 233.837 16.4893 233.837 16.7493C233.837 16.9993 233.782 17.2343 233.672 17.4543C233.572 17.6743 233.427 17.8493 233.237 17.9793C233.047 18.1093 232.812 18.1743 232.532 18.1743C232.262 18.1743 232.027 18.1093 231.827 17.9793C231.637 17.8493 231.487 17.6743 231.377 17.4543C231.277 17.2343 231.227 16.9993 231.227 16.7493ZM235.637 22.7493C235.637 23.1893 235.732 23.5943 235.922 23.9643C236.122 24.3243 236.402 24.6143 236.762 24.8343C237.122 25.0443 237.537 25.1493 238.007 25.1493C238.487 25.1493 238.902 25.0443 239.252 24.8343C239.612 24.6143 239.887 24.3243 240.077 23.9643C240.277 23.5943 240.377 23.1893 240.377 22.7493C240.377 22.2993 240.277 21.8943 240.077 21.5343C239.887 21.1743 239.612 20.8893 239.252 20.6793C238.902 20.4593 238.487 20.3493 238.007 20.3493C237.537 20.3493 237.122 20.4593 236.762 20.6793C236.402 20.8893 236.122 21.1743 235.922 21.5343C235.732 21.8943 235.637 22.2993 235.637 22.7493ZM236.702 22.7493C236.702 22.4893 236.752 22.2543 236.852 22.0443C236.962 21.8243 237.112 21.6493 237.302 21.5193C237.502 21.3893 237.737 21.3243 238.007 21.3243C238.287 21.3243 238.522 21.3893 238.712 21.5193C238.902 21.6493 239.047 21.8243 239.147 22.0443C239.257 22.2543 239.312 22.4893 239.312 22.7493C239.312 22.9993 239.257 23.2343 239.147 23.4543C239.047 23.6743 238.902 23.8493 238.712 23.9793C238.522 24.1093 238.287 24.1743 238.007 24.1743C237.737 24.1743 237.502 24.1093 237.302 23.9793C237.112 23.8493 236.962 23.6743 236.852 23.4543C236.752 23.2343 236.702 22.9993 236.702 22.7493ZM238.082 14.4993L231.332 24.9993H232.457L239.207 14.4993H238.082Z" fill="#303030"/>
<path d="M130.3 53.8993H138.295V52.7743H136.15H135.895H132.4L135.37 48.3343V53.1943V53.3593V55.9993H136.645V45.4993H136.12L130.3 53.8993ZM140.62 50.7493C140.62 50.1393 140.68 49.5793 140.8 49.0693C140.92 48.5493 141.095 48.1043 141.325 47.7343C141.555 47.3543 141.83 47.0643 142.15 46.8643C142.48 46.6543 142.845 46.5493 143.245 46.5493C143.655 46.5493 144.02 46.6543 144.34 46.8643C144.66 47.0643 144.935 47.3543 145.165 47.7343C145.395 48.1043 145.57 48.5493 145.69 49.0693C145.81 49.5793 145.87 50.1393 145.87 50.7493C145.87 51.3593 145.81 51.9243 145.69 52.4443C145.57 52.9543 145.395 53.3993 145.165 53.7793C144.935 54.1493 144.66 54.4393 144.34 54.6493C144.02 54.8493 143.655 54.9493 143.245 54.9493C142.845 54.9493 142.48 54.8493 142.15 54.6493C141.83 54.4393 141.555 54.1493 141.325 53.7793C141.095 53.3993 140.92 52.9543 140.8 52.4443C140.68 51.9243 140.62 51.3593 140.62 50.7493ZM139.345 50.7493C139.345 51.7993 139.51 52.7293 139.84 53.5393C140.17 54.3493 140.625 54.9893 141.205 55.4593C141.795 55.9193 142.475 56.1493 143.245 56.1493C144.015 56.1493 144.69 55.9193 145.27 55.4593C145.86 54.9893 146.32 54.3493 146.65 53.5393C146.98 52.7293 147.145 51.7993 147.145 50.7493C147.145 49.6993 146.98 48.7693 146.65 47.9593C146.32 47.1493 145.86 46.5143 145.27 46.0543C144.69 45.5843 144.015 45.3493 143.245 45.3493C142.475 45.3493 141.795 45.5843 141.205 46.0543C140.625 46.5143 140.17 47.1493 139.84 47.9593C139.51 48.7693 139.345 49.6993 139.345 50.7493ZM148.264 47.7493C148.264 48.1893 148.359 48.5943 148.549 48.9643C148.749 49.3243 149.029 49.6143 149.389 49.8343C149.749 50.0443 150.164 50.1493 150.634 50.1493C151.114 50.1493 151.529 50.0443 151.879 49.8343C152.239 49.6143 152.514 49.3243 152.704 48.9643C152.904 48.5943 153.004 48.1893 153.004 47.7493C153.004 47.2993 152.904 46.8943 152.704 46.5343C152.514 46.1743 152.239 45.8893 151.879 45.6793C151.529 45.4593 151.114 45.3493 150.634 45.3493C150.164 45.3493 149.749 45.4593 149.389 45.6793C149.029 45.8893 148.749 46.1743 148.549 46.5343C148.359 46.8943 148.264 47.2993 148.264 47.7493ZM149.329 47.7493C149.329 47.4893 149.379 47.2543 149.479 47.0443C149.589 46.8243 149.739 46.6493 149.929 46.5193C150.129 46.3893 150.364 46.3243 150.634 46.3243C150.914 46.3243 151.149 46.3893 151.339 46.5193C151.529 46.6493 151.674 46.8243 151.774 47.0443C151.884 47.2543 151.939 47.4893 151.939 47.7493C151.939 47.9993 151.884 48.2343 151.774 48.4543C151.674 48.6743 151.529 48.8493 151.339 48.9793C151.149 49.1093 150.914 49.1743 150.634 49.1743C150.364 49.1743 150.129 49.1093 149.929 48.9793C149.739 48.8493 149.589 48.6743 149.479 48.4543C149.379 48.2343 149.329 47.9993 149.329 47.7493ZM153.739 53.7493C153.739 54.1893 153.834 54.5943 154.024 54.9643C154.224 55.3243 154.504 55.6143 154.864 55.8343C155.224 56.0443 155.639 56.1493 156.109 56.1493C156.589 56.1493 157.004 56.0443 157.354 55.8343C157.714 55.6143 157.989 55.3243 158.179 54.9643C158.379 54.5943 158.479 54.1893 158.479 53.7493C158.479 53.2993 158.379 52.8943 158.179 52.5343C157.989 52.1743 157.714 51.8893 157.354 51.6793C157.004 51.4593 156.589 51.3493 156.109 51.3493C155.639 51.3493 155.224 51.4593 154.864 51.6793C154.504 51.8893 154.224 52.1743 154.024 52.5343C153.834 52.8943 153.739 53.2993 153.739 53.7493ZM154.804 53.7493C154.804 53.4893 154.854 53.2543 154.954 53.0443C155.064 52.8243 155.214 52.6493 155.404 52.5193C155.604 52.3893 155.839 52.3243 156.109 52.3243C156.389 52.3243 156.624 52.3893 156.814 52.5193C157.004 52.6493 157.149 52.8243 157.249 53.0443C157.359 53.2543 157.414 53.4893 157.414 53.7493C157.414 53.9993 157.359 54.2343 157.249 54.4543C157.149 54.6743 157.004 54.8493 156.814 54.9793C156.624 55.1093 156.389 55.1743 156.109 55.1743C155.839 55.1743 155.604 55.1093 155.404 54.9793C155.214 54.8493 155.064 54.6743 154.954 54.4543C154.854 54.2343 154.804 53.9993 154.804 53.7493ZM156.184 45.4993L149.434 55.9993H150.559L157.309 45.4993H156.184Z" fill="#303030"/>
<path d="M43.2 106.569L45.525 105.879V114.999H46.8V104.349L43.2 105.249V106.569ZM50.6279 109.749C50.6279 109.139 50.6879 108.579 50.8079 108.069C50.9279 107.549 51.1029 107.104 51.3329 106.734C51.5629 106.354 51.8379 106.064 52.1579 105.864C52.4879 105.654 52.8529 105.549 53.2529 105.549C53.6629 105.549 54.0279 105.654 54.3479 105.864C54.6679 106.064 54.9429 106.354 55.1729 106.734C55.4029 107.104 55.5779 107.549 55.6979 108.069C55.8179 108.579 55.8779 109.139 55.8779 109.749C55.8779 110.359 55.8179 110.924 55.6979 111.444C55.5779 111.954 55.4029 112.399 55.1729 112.779C54.9429 113.149 54.6679 113.439 54.3479 113.649C54.0279 113.849 53.6629 113.949 53.2529 113.949C52.8529 113.949 52.4879 113.849 52.1579 113.649C51.8379 113.439 51.5629 113.149 51.3329 112.779C51.1029 112.399 50.9279 111.954 50.8079 111.444C50.6879 110.924 50.6279 110.359 50.6279 109.749ZM49.3529 109.749C49.3529 110.799 49.5179 111.729 49.8479 112.539C50.1779 113.349 50.6329 113.989 51.2129 114.459C51.8029 114.919 52.4829 115.149 53.2529 115.149C54.0229 115.149 54.6979 114.919 55.2779 114.459C55.8679 113.989 56.3279 113.349 56.6579 112.539C56.9879 111.729 57.1529 110.799 57.1529 109.749C57.1529 108.699 56.9879 107.769 56.6579 106.959C56.3279 106.149 55.8679 105.514 55.2779 105.054C54.6979 104.584 54.0229 104.349 53.2529 104.349C52.4829 104.349 51.8029 104.584 51.2129 105.054C50.6329 105.514 50.1779 106.149 49.8479 106.959C49.5179 107.769 49.3529 108.699 49.3529 109.749ZM58.2721 106.749C58.2721 107.189 58.3671 107.594 58.5571 107.964C58.7571 108.324 59.0371 108.614 59.3971 108.834C59.7571 109.044 60.1721 109.149 60.6421 109.149C61.1221 109.149 61.5371 109.044 61.8871 108.834C62.2471 108.614 62.5221 108.324 62.7121 107.964C62.9121 107.594 63.0121 107.189 63.0121 106.749C63.0121 106.299 62.9121 105.894 62.7121 105.534C62.5221 105.174 62.2471 104.889 61.8871 104.679C61.5371 104.459 61.1221 104.349 60.6421 104.349C60.1721 104.349 59.7571 104.459 59.3971 104.679C59.0371 104.889 58.7571 105.174 58.5571 105.534C58.3671 105.894 58.2721 106.299 58.2721 106.749ZM59.3371 106.749C59.3371 106.489 59.3871 106.254 59.4871 106.044C59.5971 105.824 59.7471 105.649 59.9371 105.519C60.1371 105.389 60.3721 105.324 60.6421 105.324C60.9221 105.324 61.1571 105.389 61.3471 105.519C61.5371 105.649 61.6821 105.824 61.7821 106.044C61.8921 106.254 61.9471 106.489 61.9471 106.749C61.9471 106.999 61.8921 107.234 61.7821 107.454C61.6821 107.674 61.5371 107.849 61.3471 107.979C61.1571 108.109 60.9221 108.174 60.6421 108.174C60.3721 108.174 60.1371 108.109 59.9371 107.979C59.7471 107.849 59.5971 107.674 59.4871 107.454C59.3871 107.234 59.3371 106.999 59.3371 106.749ZM63.7471 112.749C63.7471 113.189 63.8421 113.594 64.0321 113.964C64.2321 114.324 64.5121 114.614 64.8721 114.834C65.2321 115.044 65.6471 115.149 66.1171 115.149C66.5971 115.149 67.0121 115.044 67.3621 114.834C67.7221 114.614 67.9971 114.324 68.1871 113.964C68.3871 113.594 68.4871 113.189 68.4871 112.749C68.4871 112.299 68.3871 111.894 68.1871 111.534C67.9971 111.174 67.7221 110.889 67.3621 110.679C67.0121 110.459 66.5971 110.349 66.1171 110.349C65.6471 110.349 65.2321 110.459 64.8721 110.679C64.5121 110.889 64.2321 111.174 64.0321 111.534C63.8421 111.894 63.7471 112.299 63.7471 112.749ZM64.8121 112.749C64.8121 112.489 64.8621 112.254 64.9621 112.044C65.0721 111.824 65.2221 111.649 65.4121 111.519C65.6121 111.389 65.8471 111.324 66.1171 111.324C66.3971 111.324 66.6321 111.389 66.8221 111.519C67.0121 111.649 67.1571 111.824 67.2571 112.044C67.3671 112.254 67.4221 112.489 67.4221 112.749C67.4221 112.999 67.3671 113.234 67.2571 113.454C67.1571 113.674 67.0121 113.849 66.8221 113.979C66.6321 114.109 66.3971 114.174 66.1171 114.174C65.8471 114.174 65.6121 114.109 65.4121 113.979C65.2221 113.849 65.0721 113.674 64.9621 113.454C64.8621 113.234 64.8121 112.999 64.8121 112.749ZM66.1921 104.499L59.4421 114.999H60.5671L67.3171 104.499H66.1921Z" fill="#303030"/>
<path d="M78.8159 127.035C42.9504 154.42 15.7954 101.304 6 67.9993V161.499H313V80.9993C309.498 79.4427 306.497 76.8627 303.984 73.8594C294.961 63.0772 290.975 48.4619 280.891 38.6648C259.378 17.763 242.48 24.7665 232.5 33.4993C220.5 43.9993 196 67.9993 156.5 67.9993C132.544 67.9993 112.056 86.198 99.697 101.901C92.9328 110.495 87.5086 120.398 78.8159 127.035Z" fill="url(#paint0_linear_226_3)"/>
<path d="M7 68.0401C16.8473 101.521 44.2386 155.024 80.3866 126.634C88.6077 120.177 93.8314 110.768 100.248 102.516C112.557 86.6858 133.252 68.0401 157.5 68.0401C197 68.0401 221.5 44.0401 233.5 33.5401C242.415 25.7392 256.85 19.3182 275.164 32.9355C291.156 44.8259 294.619 69.3301 311.594 79.7687C312.368 80.2447 313.17 80.6711 314 81.04" stroke="#2EB4E3" stroke-width="3" stroke-linecap="round"/>
<circle cx="143" cy="70.9993" r="8.5" fill="#F3F4F4" stroke="#2EB4E3" stroke-width="3"/>
<circle cx="225" cy="39.9993" r="8.5" fill="#F3F4F4" stroke="#2EB4E3" stroke-width="3"/>
<circle cx="58" cy="130.999" r="8.5" fill="#F3F4F4" stroke="#2EB4E3" stroke-width="3"/>
<circle cx="297" cy="59.9993" r="8.5" fill="#F3F4F4" stroke="#2EB4E3" stroke-width="3"/>
<defs>
<linearGradient id="paint0_linear_226_3" x1="160" y1="45.4993" x2="167.5" y2="219.499" gradientUnits="userSpaceOnUse">
<stop stop-color="#47CFFF"/>
<stop offset="1" stop-color="white" stop-opacity="0"/>
</linearGradient>
</defs>
</svg>
