<svg width="190" height="190" viewBox="0 0 190 190" fill="none" xmlns="http://www.w3.org/2000/svg">
<g filter="url(#filter0_bdi_1_2128)">
<rect x="28" y="15.3059" width="133.255" height="133.255" rx="66.6274" transform="rotate(-0.561514 28 15.3059)" fill="url(#paint0_linear_1_2128)" fill-opacity="0.93" shape-rendering="crispEdges"/>
</g>
<path d="M92 82.875C96.1421 82.875 99.5 79.5171 99.5 75.375C99.5 71.2329 96.1421 67.875 92 67.875C87.8579 67.875 84.5 71.2329 84.5 75.375C84.5 79.5171 87.8579 82.875 92 82.875Z" stroke="#1ACCB7" stroke-width="3" stroke-linecap="round" stroke-linejoin="round"/>
<circle cx="103.5" cy="99.5" r="16.5" fill="#C6ECE6"/>
<path d="M110.75 75.375C110.75 92.25 92 105.375 92 105.375C92 105.375 73.25 92.25 73.25 75.375C73.25 70.4022 75.2254 65.6331 78.7417 62.1167C82.2581 58.6004 87.0272 56.625 92 56.625C96.9728 56.625 101.742 58.6004 105.258 62.1167C108.775 65.6331 110.75 70.4022 110.75 75.375V75.375Z" stroke="#1ACCB7" stroke-width="3" stroke-linecap="round" stroke-linejoin="round"/>
<defs>
<filter id="filter0_bdi_1_2128" x="0.649902" y="-6.78882" width="189.255" height="196.693" filterUnits="userSpaceOnUse" color-interpolation-filters="sRGB">
<feFlood flood-opacity="0" result="BackgroundImageFix"/>
<feGaussianBlur in="BackgroundImageFix" stdDeviation="10.7192"/>
<feComposite in2="SourceAlpha" operator="in" result="effect1_backgroundBlur_1_2128"/>
<feColorMatrix in="SourceAlpha" type="matrix" values="0 0 0 0 0 0 0 0 0 0 0 0 0 0 0 0 0 0 127 0" result="hardAlpha"/>
<feOffset dy="14"/>
<feGaussianBlur stdDeviation="14"/>
<feComposite in2="hardAlpha" operator="out"/>
<feColorMatrix type="matrix" values="0 0 0 0 0.804167 0 0 0 0 0.804167 0 0 0 0 0.804167 0 0 0 0.25 0"/>
<feBlend mode="normal" in2="effect1_backgroundBlur_1_2128" result="effect2_dropShadow_1_2128"/>
<feBlend mode="normal" in="SourceGraphic" in2="effect2_dropShadow_1_2128" result="shape"/>
<feColorMatrix in="SourceAlpha" type="matrix" values="0 0 0 0 0 0 0 0 0 0 0 0 0 0 0 0 0 0 127 0" result="hardAlpha"/>
<feOffset dx="-2.57262" dy="2.57262"/>
<feComposite in2="hardAlpha" operator="arithmetic" k2="-1" k3="1"/>
<feColorMatrix type="matrix" values="0 0 0 0 1 0 0 0 0 1 0 0 0 0 1 0 0 0 1 0"/>
<feBlend mode="normal" in2="shape" result="effect3_innerShadow_1_2128"/>
</filter>
<linearGradient id="paint0_linear_1_2128" x1="149.497" y1="63.8988" x2="33.9626" y2="50.7678" gradientUnits="userSpaceOnUse">
<stop stop-color="#F4F4F4"/>
<stop offset="0.421875" stop-color="#F4F4F4"/>
<stop offset="1" stop-color="white"/>
</linearGradient>
</defs>
</svg>
