<svg width="68" height="68" viewBox="0 0 68 68" fill="none" xmlns="http://www.w3.org/2000/svg">
<path d="M31.0422 7.46272C32.0481 4.94842 35.6072 4.94842 36.613 7.46272L37.714 10.2149C38.4579 12.0745 40.7804 12.6968 42.3545 11.4583L44.6841 9.62534C46.8123 7.95081 49.8946 9.73037 49.5085 12.4107L49.0859 15.3447C48.8003 17.3271 50.5005 19.0273 52.483 18.7417L55.4169 18.3191C58.0973 17.9331 59.8768 21.0154 58.2023 23.1436L56.3693 25.4732C55.1308 27.0472 55.7531 29.3697 57.6127 30.1136L60.3649 31.2146C62.8792 32.2204 62.8792 35.7796 60.3649 36.7854L57.6127 37.8864C55.7531 38.6303 55.1308 40.9528 56.3693 42.5268L58.2023 44.8564C59.8768 46.9846 58.0973 50.0669 55.4169 49.6809L52.4829 49.2583C50.5005 48.9727 48.8003 50.6729 49.0859 52.6553L49.5085 55.5893C49.8946 58.2696 46.8123 60.0492 44.6841 58.3747L42.3545 56.5417C40.7804 55.3032 38.4579 55.9255 37.714 57.7851L36.613 60.5373C35.6072 63.0516 32.0481 63.0516 31.0422 60.5373L29.9413 57.7851C29.1973 55.9255 26.8749 55.3032 25.3008 56.5417L22.9712 58.3747C20.843 60.0492 17.7607 58.2696 18.1468 55.5893L18.5694 52.6553C18.8549 50.6729 17.1548 48.9727 15.1723 49.2583L12.2384 49.6809C9.55801 50.0669 7.77845 46.9846 9.45298 44.8564L11.2859 42.5268C12.5245 40.9528 11.9021 38.6303 10.0425 37.8864L7.29035 36.7854C4.77605 35.7796 4.77605 32.2204 7.29035 31.2146L10.0425 30.1136C11.9021 29.3697 12.5245 27.0472 11.2859 25.4732L9.45298 23.1436C7.77845 21.0154 9.55801 17.9331 12.2384 18.3191L15.1723 18.7417C17.1548 19.0273 18.8549 17.3271 18.5694 15.3447L18.1468 12.4107C17.7607 9.73037 20.843 7.95081 22.9712 9.62534L25.3008 11.4583C26.8749 12.6968 29.1973 12.0745 29.9413 10.2149L31.0422 7.46272Z" fill="#39DD49"/>
<path d="M44.3276 23.5L24.3276 43.5" stroke="#303030" stroke-width="3" stroke-linecap="round" stroke-linejoin="round"/>
<path d="M27.3276 30.5C29.5368 30.5 31.3276 28.7091 31.3276 26.5C31.3276 24.2909 29.5368 22.5 27.3276 22.5C25.1185 22.5 23.3276 24.2909 23.3276 26.5C23.3276 28.7091 25.1185 30.5 27.3276 30.5Z" stroke="#303030" stroke-width="3" stroke-linecap="round" stroke-linejoin="round"/>
<path d="M41.3276 44.5C43.5368 44.5 45.3276 42.7091 45.3276 40.5C45.3276 38.2909 43.5368 36.5 41.3276 36.5C39.1185 36.5 37.3276 38.2909 37.3276 40.5C37.3276 42.7091 39.1185 44.5 41.3276 44.5Z" stroke="#303030" stroke-width="3" stroke-linecap="round" stroke-linejoin="round"/>
</svg>
