<svg width="190" height="190" viewBox="0 0 190 190" fill="none" xmlns="http://www.w3.org/2000/svg">
<g filter="url(#filter0_bdi_1_2105)">
<rect x="28" y="15.3059" width="133.255" height="133.255" rx="66.6274" transform="rotate(-0.561514 28 15.3059)" fill="url(#paint0_linear_1_2105)" fill-opacity="0.93" shape-rendering="crispEdges"/>
</g>
<circle cx="107.5" cy="59.5" r="16.5" fill="#F9DCEF"/>
<path d="M82 63.2308L82 98.7692C82 100.554 83.4551 102 85.25 102L104.75 102C106.545 102 108 100.554 108 98.7692L108 63.2308C108 61.4465 106.545 60 104.75 60L85.25 60C83.4551 60 82 61.4465 82 63.2308Z" stroke="#FF65CB" stroke-width="3" stroke-linecap="round" stroke-linejoin="round"/>
<path d="M95 92C93.8954 92 93 92.8954 93 94C93 95.1046 93.8954 96 95 96C96.1046 96 97 95.1046 97 94C97 92.8954 96.1046 92 95 92Z" fill="#FF65CB"/>
<defs>
<filter id="filter0_bdi_1_2105" x="0.649902" y="-6.78882" width="189.255" height="196.693" filterUnits="userSpaceOnUse" color-interpolation-filters="sRGB">
<feFlood flood-opacity="0" result="BackgroundImageFix"/>
<feGaussianBlur in="BackgroundImageFix" stdDeviation="10.7192"/>
<feComposite in2="SourceAlpha" operator="in" result="effect1_backgroundBlur_1_2105"/>
<feColorMatrix in="SourceAlpha" type="matrix" values="0 0 0 0 0 0 0 0 0 0 0 0 0 0 0 0 0 0 127 0" result="hardAlpha"/>
<feOffset dy="14"/>
<feGaussianBlur stdDeviation="14"/>
<feComposite in2="hardAlpha" operator="out"/>
<feColorMatrix type="matrix" values="0 0 0 0 0.804167 0 0 0 0 0.804167 0 0 0 0 0.804167 0 0 0 0.25 0"/>
<feBlend mode="normal" in2="effect1_backgroundBlur_1_2105" result="effect2_dropShadow_1_2105"/>
<feBlend mode="normal" in="SourceGraphic" in2="effect2_dropShadow_1_2105" result="shape"/>
<feColorMatrix in="SourceAlpha" type="matrix" values="0 0 0 0 0 0 0 0 0 0 0 0 0 0 0 0 0 0 127 0" result="hardAlpha"/>
<feOffset dx="-2.57262" dy="2.57262"/>
<feComposite in2="hardAlpha" operator="arithmetic" k2="-1" k3="1"/>
<feColorMatrix type="matrix" values="0 0 0 0 1 0 0 0 0 1 0 0 0 0 1 0 0 0 1 0"/>
<feBlend mode="normal" in2="shape" result="effect3_innerShadow_1_2105"/>
</filter>
<linearGradient id="paint0_linear_1_2105" x1="149.497" y1="63.8988" x2="33.9626" y2="50.7678" gradientUnits="userSpaceOnUse">
<stop stop-color="#F4F4F4"/>
<stop offset="0.421875" stop-color="#F4F4F4"/>
<stop offset="1" stop-color="white"/>
</linearGradient>
</defs>
</svg>
