<svg width="291" height="292" viewBox="0 0 291 292" fill="none" xmlns="http://www.w3.org/2000/svg">
<g filter="url(#filter0_bdi_1_2167)">
<rect x="27.8477" y="17.1394" width="234.007" height="234.007" rx="117.003" transform="rotate(-0.561514 27.8477 17.1394)" fill="url(#paint0_linear_1_2167)" fill-opacity="0.93" shape-rendering="crispEdges"/>
</g>
<path d="M146 24.9993C128.011 24.9993 110.312 29.5346 94.5404 38.1861C78.7685 46.8375 65.4322 59.3257 55.7648 74.4962C46.0973 89.6666 40.4106 107.03 39.2305 124.98C38.0504 142.93 41.4149 160.888 49.013 177.194C56.6112 193.499 68.1976 207.626 82.7012 218.268C97.2047 228.91 114.157 235.723 131.991 238.078C149.825 240.433 167.966 238.254 184.734 231.742C201.503 225.23 216.36 214.595 227.93 200.821L146 131.999L146 24.9993Z" fill="#4ADCF1"/>
<path d="M106.706 32.4756C89.736 39.1756 74.7612 50.1036 63.2043 64.2211C51.6474 78.3387 43.8923 95.1768 40.6759 113.136L146 131.999L106.706 32.4756Z" fill="#56EAFF"/>
<path d="M224.769 183.532C235.26 170.842 241.837 155.31 243.736 138.733C245.636 122.156 242.781 105.213 235.503 89.8622C228.224 74.5116 216.819 61.3814 202.607 51.9906C188.395 42.5999 171.957 37.3323 155.194 36.7974L155.531 125.53L224.769 183.532Z" fill="#625FFB"/>
<defs>
<filter id="filter0_bdi_1_2167" x="0.98877" y="-5.45142" width="290.007" height="297.446" filterUnits="userSpaceOnUse" color-interpolation-filters="sRGB">
<feFlood flood-opacity="0" result="BackgroundImageFix"/>
<feGaussianBlur in="BackgroundImageFix" stdDeviation="10.7192"/>
<feComposite in2="SourceAlpha" operator="in" result="effect1_backgroundBlur_1_2167"/>
<feColorMatrix in="SourceAlpha" type="matrix" values="0 0 0 0 0 0 0 0 0 0 0 0 0 0 0 0 0 0 127 0" result="hardAlpha"/>
<feOffset dy="14"/>
<feGaussianBlur stdDeviation="14"/>
<feComposite in2="hardAlpha" operator="out"/>
<feColorMatrix type="matrix" values="0 0 0 0 0.804167 0 0 0 0 0.804167 0 0 0 0 0.804167 0 0 0 0.25 0"/>
<feBlend mode="normal" in2="effect1_backgroundBlur_1_2167" result="effect2_dropShadow_1_2167"/>
<feBlend mode="normal" in="SourceGraphic" in2="effect2_dropShadow_1_2167" result="shape"/>
<feColorMatrix in="SourceAlpha" type="matrix" values="0 0 0 0 0 0 0 0 0 0 0 0 0 0 0 0 0 0 127 0" result="hardAlpha"/>
<feOffset dx="-2.57262" dy="2.57262"/>
<feComposite in2="hardAlpha" operator="arithmetic" k2="-1" k3="1"/>
<feColorMatrix type="matrix" values="0 0 0 0 1 0 0 0 0 1 0 0 0 0 1 0 0 0 1 0"/>
<feBlend mode="normal" in2="shape" result="effect3_innerShadow_1_2167"/>
</filter>
<linearGradient id="paint0_linear_1_2167" x1="241.207" y1="102.473" x2="38.3186" y2="79.4135" gradientUnits="userSpaceOnUse">
<stop stop-color="#F4F4F4"/>
<stop offset="0.421875" stop-color="#F4F4F4"/>
<stop offset="1" stop-color="white"/>
</linearGradient>
</defs>
</svg>
