<svg width="30" height="29" viewBox="0 0 30 29" fill="none" xmlns="http://www.w3.org/2000/svg">
<path d="M13.4972 1.52129C14.0145 -0.0708787 16.267 -0.0708787 16.7843 1.52129L19.0821 8.59322C19.3135 9.30526 19.977 9.78735 20.7257 9.78735L28.1616 9.78735C29.8357 9.78735 30.5317 11.9296 29.1774 12.9136L23.1616 17.2843C22.5559 17.7244 22.3025 18.5044 22.5338 19.2164L24.8316 26.2884C25.349 27.8805 23.5267 29.2045 22.1723 28.2205L16.1565 23.8498C15.5508 23.4097 14.7307 23.4097 14.125 23.8498L8.10923 28.2205C6.75485 29.2045 4.93254 27.8805 5.44987 26.2884L7.74768 19.2164C7.97904 18.5044 7.72559 17.7244 7.11989 17.2843L1.10415 12.9136C-0.250233 11.9296 0.445827 9.78735 2.11993 9.78735L9.5558 9.78735C10.3045 9.78735 10.968 9.30526 11.1994 8.59322L13.4972 1.52129Z" fill="#FFB545"/>
</svg>
