<svg width="116" height="63" viewBox="0 0 116 63" fill="none" xmlns="http://www.w3.org/2000/svg">
<path d="M30.5697 14.5001L1.64258 28.5001V35.5001H113.643V0.500122L65.4307 22.5001L30.5697 14.5001Z" fill="url(#paint0_linear_1_2026)"/>
<path d="M0.642578 28.5001L30.0863 14.2545L65.5697 22.1142L114.643 0.500122" stroke="#4C56CC" stroke-linecap="round"/>
<path d="M21.0371 51.7296C21.0371 53.63 21.5703 55.0314 22.6367 55.9337C23.71 56.8361 25.0498 57.2872 26.6562 57.2872C28.2559 57.2872 29.5889 56.8361 30.6553 55.9337C31.7217 55.0314 32.2549 53.63 32.2549 51.7296V42.0704H29.5376V51.8834C29.5376 53.0524 29.2744 53.8898 28.748 54.3956C28.2217 54.8947 27.5278 55.1442 26.6665 55.1442C25.7983 55.1442 25.1011 54.8947 24.5747 54.3956C24.0552 53.8898 23.7954 53.0524 23.7954 51.8834V42.0704H21.0371V51.7296ZM34.9722 61.2965H37.6484V55.8722C37.9355 56.2823 38.3423 56.6071 38.8687 56.8463C39.4019 57.0856 40.0171 57.2052 40.7144 57.2052C42.0474 57.2052 43.1206 56.7164 43.9341 55.7389C44.7476 54.7545 45.1543 53.4625 45.1543 51.8629V51.5348C45.1543 49.9283 44.7441 48.6398 43.9238 47.6691C43.1035 46.6915 42.0166 46.2028 40.6631 46.2028C39.9658 46.2028 39.3403 46.3463 38.7866 46.6334C38.2329 46.9137 37.833 47.2657 37.5869 47.6896H37.5356L37.4741 46.4181H34.9722V61.2965ZM37.6484 53.5958V49.7916C37.8262 49.3815 38.1133 49.0226 38.5098 48.715C38.9131 48.4005 39.4053 48.2433 39.9863 48.2433C40.8203 48.2433 41.4355 48.5338 41.832 49.1149C42.2285 49.6891 42.4268 50.4615 42.4268 51.4323V51.9655C42.4268 52.9362 42.2285 53.7155 41.832 54.3033C41.4355 54.8844 40.8237 55.1749 39.9966 55.1749C39.4292 55.1749 38.937 55.0177 38.52 54.7032C38.1099 54.382 37.8193 54.0128 37.6484 53.5958ZM51.6963 52.8473C51.6963 54.276 52.2158 55.3732 53.2549 56.1388C54.3008 56.9044 55.6611 57.2872 57.3359 57.2872C59.0176 57.2872 60.3608 56.8976 61.3657 56.1183C62.3774 55.3322 62.8833 54.2623 62.8833 52.9088C62.8833 51.6168 62.4902 50.6188 61.7041 49.9147C60.918 49.2037 59.7559 48.6295 58.2178 48.192C56.7686 47.7887 55.8218 47.4332 55.3774 47.1256C54.9331 46.818 54.7109 46.3839 54.7109 45.8234C54.7109 45.2355 54.916 44.7706 55.3262 44.4288C55.7363 44.087 56.3755 43.9161 57.2437 43.9161C58.1118 43.9161 58.7646 44.1246 59.2021 44.5416C59.6465 44.9518 59.8687 45.5021 59.8687 46.1925V46.4181H62.5859V46.1412C62.5859 44.8287 62.0972 43.776 61.1196 42.983C60.1489 42.1832 58.8535 41.7833 57.2334 41.7833C55.6064 41.7833 54.3179 42.173 53.3677 42.9523C52.4175 43.7247 51.9424 44.7433 51.9424 46.0079C51.9492 47.2111 52.3286 48.151 53.0806 48.8278C53.8394 49.5045 55.0015 50.0651 56.5669 50.5094C58.0093 50.9127 58.9629 51.2887 59.4277 51.6373C59.8926 51.986 60.125 52.4679 60.125 53.0831C60.125 53.712 59.8823 54.2179 59.397 54.6007C58.9185 54.9835 58.228 55.1749 57.3257 55.1749C56.4233 55.1749 55.7192 54.9767 55.2134 54.5802C54.7075 54.1837 54.4546 53.589 54.4546 52.796V52.5397H51.6963V52.8473ZM64.8931 57.0001H67.5693V49.8531C67.7676 49.3746 68.0513 48.9952 68.4204 48.715C68.7896 48.4347 69.2271 48.2946 69.7329 48.2946C70.314 48.2946 70.7686 48.4518 71.0967 48.7662C71.4248 49.0807 71.5889 49.6071 71.5889 50.3453V57.0001H74.2549V50.1813C74.2549 48.7662 73.9336 47.7511 73.291 47.1359C72.6553 46.5138 71.835 46.2028 70.8301 46.2028C70.0781 46.2028 69.4287 46.3497 68.8818 46.6437C68.335 46.9376 67.8975 47.3204 67.5693 47.7921V41.4039H64.8931V57.0001ZM76.2646 51.8629C76.2646 53.5035 76.7534 54.8195 77.731 55.8107C78.7153 56.8019 80.0073 57.2975 81.6069 57.2975C83.2065 57.2975 84.4951 56.8019 85.4727 55.8107C86.4502 54.8195 86.939 53.5035 86.939 51.8629V51.5348C86.939 49.901 86.4502 48.5885 85.4727 47.5973C84.4951 46.6061 83.2065 46.1105 81.6069 46.1105C80.0073 46.1105 78.7153 46.6061 77.731 47.5973C76.7534 48.5885 76.2646 49.901 76.2646 51.5348V51.8629ZM78.9922 51.4323C78.9922 50.4274 79.2178 49.631 79.6689 49.0431C80.1201 48.4552 80.7661 48.1613 81.6069 48.1613C82.4409 48.1613 83.0835 48.4552 83.5347 49.0431C83.9858 49.631 84.2114 50.4274 84.2114 51.4323V51.9757C84.2114 52.9806 83.9893 53.777 83.5449 54.3649C83.1006 54.9528 82.4546 55.2467 81.6069 55.2467C80.7593 55.2467 80.1099 54.9528 79.6587 54.3649C79.2144 53.777 78.9922 52.9806 78.9922 51.9757V51.4323ZM87.6978 48.3868H94.168V46.4181H87.6978V48.3868ZM89.3896 53.9957C89.3896 55.1373 89.6665 55.9713 90.2202 56.4977C90.7739 57.024 91.519 57.2872 92.4556 57.2872C92.8179 57.2872 93.146 57.2565 93.4399 57.1949C93.7407 57.1334 93.9731 57.0651 94.1372 56.9899V55.0211C93.98 55.0826 93.8159 55.1339 93.645 55.1749C93.481 55.2091 93.3169 55.2262 93.1528 55.2262C92.7905 55.2262 92.5137 55.1305 92.3223 54.9391C92.1377 54.7477 92.0454 54.3888 92.0454 53.8624V43.7111H89.4102V47.1051L89.3896 47.382V53.9957Z" fill="#263238"/>
<defs>
<linearGradient id="paint0_linear_1_2026" x1="57.6426" y1="0.500122" x2="57.4741" y2="35.0011" gradientUnits="userSpaceOnUse">
<stop stop-color="#7782FF"/>
<stop offset="1" stop-color="#7782FF" stop-opacity="0"/>
</linearGradient>
</defs>
</svg>
